<?xml version="1.0" encoding="utf-8"?>
<!-- Generator: Adobe Illustrator 18.1.1, SVG Export Plug-In . SVG Version: 6.00 Build 0)  -->
<svg version="1.0" id="Layer_1" xmlns="http://www.w3.org/2000/svg" xmlns:xlink="http://www.w3.org/1999/xlink" x="0px" y="0px"
	 viewBox="0 96.3 662.5 177.1" enable-background="new 0 96.3 662.5 177.1" xml:space="preserve">
<path fill="#FFFFFF" d="M95.9,259c-10,10-25.6,14.4-42.8,14.4c-16,0-30-4.4-40.4-14.4C6,252.2,0,241.8,0,230.2h28
	c0,5.6,2.8,11.6,6.8,14.4c4.8,4,10.4,5.6,18.8,5.6c10,0,25.2-2,25.2-15.6c0-7.2-4.8-12-12.4-13.2c-11.2-1.6-23.6-2.4-34.4-4.8
	C15.2,213,3.6,199,3.6,183.4c0-12.8,5.2-21.6,12.8-28c9.2-8,22.4-12.4,38-12.4c14.8,0,30,4.8,39.2,14.4c6.4,7.2,10.4,16.4,10.4,25.6
	H75.6c0-4.8-2-8.8-5.2-11.6c-3.6-3.6-10-5.6-16.4-5.6c-4.4,0-8.4,0-12.8,2c-5.2,1.6-9.2,6.4-9.2,12.8c0,8.8,7.6,11.6,14.4,12.4
	c11.2,1.6,14.4,1.6,26.4,3.6c19.6,3.2,34,15.6,34,35.2C106.7,243.8,102.3,252.6,95.9,259"/>
<path fill="#FFFFFF" d="M160.7,271.3c-20.4,0-34-10-34-33.6V96.3h30.4v136.3c0,7.2,1.6,12,12,12c2.8,0,3.2-0.4,5.2-0.4v25.2
	C167.9,270.9,166.7,271.3,160.7,271.3"/>
<path fill="#FFFFFF" d="M190.7,96.7h32.4v31.2h-32.4L190.7,96.7L190.7,96.7z M191.9,145h30.4v125.1h-30.4V145z"/>
<polygon fill="#FFFFFF" points="335,269.7 299.8,215.4 279.8,237 279.8,269.7 249.9,269.7 249.9,96.3 279.8,96.3 279.8,195.8 
	327.4,145 365,145 320.2,193.4 369.8,269.7 "/>
<g enable-background="new    ">
	<path fill="#FFFFFF" d="M446.7,112.2c0-5.1,0-8-0.1-9.4c-0.1-1.1-0.4-1.3-1.7-1.5l-3.8-0.4l0.1-1.7c1.4,0,5.2,0.2,7.8,0.2
		c3,0,6.5-0.2,10.3-0.2c7.1,0,10.6,1,13.3,2.6c4.9,2.9,7.7,8.5,7.7,16.5c0,8.5-2.9,16-10.9,19.7c-2.9,1.4-7,2.1-11.2,2.1
		c-3.1-0.1-6.3-0.3-9.4-0.3c-2.6,0-6.9,0.2-8.1,0.2v-1.8l3.1-0.2c1.9-0.2,2.4-0.6,2.5-1.8c0.1-1.3,0.3-5.2,0.3-11V112.2z M453,125.3
		c0,7.6,0.1,9.8,0.2,11.3c0.1,1,0.7,1.5,4.2,1.5c6.6,0,10.1-2,12.3-4.9c2.1-2.8,3.6-7.5,3.6-14.6c0-6.2-1.5-10.6-3.7-13.1
		c-2.5-2.8-5.9-4.2-11.3-4.2c-4.7,0-5.1,0.6-5.1,1.3c-0.1,1-0.3,3.3-0.3,9.9V125.3z"/>
</g>
<g enable-background="new    ">
	<path fill="#FFFFFF" d="M501.1,140c-1.9,0-4.4-0.2-7.4-0.2c-3.2,0-5.1,0.2-7,0.2l0.1-1.8c3.7-0.1,4.2-0.6,4.3-1.7
		c0.1-1.2,0.3-3.8,0.3-7.6v-7.1c0-3.5-0.1-5.6-0.2-6.5c-0.1-0.9-0.7-1-4.1-0.9l0.1-1.7c3-0.2,7.2-0.4,10.1-1.2
		c-0.1,1.5-0.2,5.1-0.2,9.9v7.4c0,4,0.1,6.2,0.1,7.5c0.1,1.4,0.8,1.7,4,1.8L501.1,140z M497.1,102.6c0,2-1.6,3.3-3.6,3.3
		c-1.7,0-3.2-1.2-3.2-3.3c0-2.1,1.5-3.6,3.5-3.6C496,99.1,497.1,100.5,497.1,102.6z"/>
</g>
<g enable-background="new    ">
	<path fill="#FFFFFF" d="M512.8,143.2c-1.7,0.7-3.1,1.9-3.1,4.2c0,3.7,4,6,9,6c7.2,0,10.8-3.6,10.8-7.8c0-2.6-1.9-4-4.4-4.1
		c-4.7,0-9,0-11.2,0c-2.6-0.1-4.8-0.6-6.4-2.4c-1-1-1.6-2.4-1.6-4.2c0-3,2.2-5.2,4.2-6.4c-1.7-1.8-2.4-4.2-2.4-6.5
		c0-7,5.4-10.5,11.4-10.5c3.6,0,5.7,1.2,6.4,1.6c2.2-1.7,4-2.9,6-2.9c1.6,0,2.7,1.2,2.7,1.9c-0.1,1.1-1.3,2.3-2.2,2.7
		c-0.6-0.6-1.7-1-3-1c-0.8,0-1.5,0.1-2.1,0.4c1.8,1.8,2.8,4.6,2.8,7.1c0,6.9-5.6,10.2-11.4,10.2c-3.3,0-5.6-0.8-6.8-1.7
		c-1.5,0.5-2.6,1.9-2.6,3.4c0,1.8,1.7,2.8,3.7,2.8c3.6,0,7.8-0.1,13.1-0.1c2,0,3.8,0.5,5.3,1.6c1.7,1.3,2.6,3.7,2.6,5.8
		c0,8.5-8.7,12.4-16.5,12.4c-7.5,0-11.8-2.9-11.8-7.3c0-1.7,0.8-3,2.4-4.2c0.9-0.7,2.6-1.6,4.2-2.1L512.8,143.2z M513.6,121.5
		c0,4,1.3,8.1,5.1,8.1c3.8,0,5.1-3.7,5.1-8.1c0-3.9-1-8.1-5.1-8.1C515.2,113.4,513.6,116.7,513.6,121.5z"/>
</g>
<g enable-background="new    ">
	<path fill="#FFFFFF" d="M551.1,140c-1.9,0-4.4-0.2-7.4-0.2c-3.2,0-5.1,0.2-7,0.2l0.1-1.8c3.7-0.1,4.2-0.6,4.3-1.7
		c0.1-1.2,0.3-3.8,0.3-7.6v-7.1c0-3.5-0.1-5.6-0.2-6.5c-0.1-0.9-0.7-1-4.1-0.9l0.1-1.7c3-0.2,7.2-0.4,10.1-1.2
		c-0.1,1.5-0.2,5.1-0.2,9.9v7.4c0,4,0.1,6.2,0.1,7.5c0.1,1.4,0.8,1.7,4,1.8L551.1,140z M547.1,102.6c0,2-1.6,3.3-3.6,3.3
		c-1.7,0-3.2-1.2-3.2-3.3c0-2.1,1.5-3.6,3.5-3.6C545.9,99.1,547.1,100.5,547.1,102.6z"/>
</g>
<g enable-background="new    ">
	<path fill="#FFFFFF" d="M573.1,112.5l-0.3,1.9l-8.7,0.4c-0.1,2.2-0.2,4.9-0.2,9.9c0,5.8,0.1,9,0.4,10.8c0.3,1.6,1.3,2.6,2.9,2.6
		c2.9,0,4.5-2.2,5.3-5.4h0.8l0.6,2.3c-1.6,3.7-4.8,5.7-9,5.7c-2.9,0-4.8-0.9-5.8-2.2c-0.7-1-1-2.2-1.1-4.1c0-5.1,0.2-14.6,0.3-19.5
		l-4.4-0.4l0.3-1.9h4.2c0-2.1,0-5.3,0-7.2c2.4-0.9,4.6-2.1,5.5-2.9l0.6,0.2c-0.1,1.7-0.3,6.4-0.3,9.9H573.1z"/>
</g>
<g enable-background="new    ">
	<path fill="#FFFFFF" d="M607.4,134.4c-0.9,4.6-3.5,6.3-6.5,6.3c-3.3,0-4.6-2-5-4.7c-2.8,3.1-6.2,4.7-9.2,4.7c-5,0-7.8-3.4-7.8-7.9
		c0-2.6,1-4.7,3.6-5.8c4.4-1.9,10.9-3.9,13.5-5.7v-2.5c0-2.8-1.3-5.4-5-5.4c-3.8,0-5.4,2-5.4,4.6c0,0.7,0.1,1.4,0.3,1.9
		c0.1,0.6-0.2,1.1-0.6,1.3c-0.6,0.4-1.3,0.6-2.2,0.6c-1.4,0-2.8-0.8-2.8-2.9c0-3.3,4.7-7.5,11.7-7.5c5.4,0,7.8,2.3,8.7,3.7
		c0.5,0.8,0.9,2.2,0.9,3.3c0,1.8,0,12.2,0,16.3c0,2.4,0.7,2.8,1.5,2.8c1,0,2-1.3,2.6-3.9L607.4,134.4z M596,123.3
		c-1.7,1-5.2,2.4-7.5,3.7c-1.9,1-3.3,2-3.3,4.9c0,3,1.6,5.4,4.5,5.4c3,0,4.9-1.8,6-4.2c0.3-0.8,0.4-1.8,0.4-2.7V123.3z"/>
</g>
<g enable-background="new    ">
	<path fill="#FFFFFF" d="M609.5,97.2c4.2-0.1,7.8-0.4,10.3-0.8c-0.1,2.4-0.3,6.7-0.3,12.9v16.1c0,6.7,0.1,9.5,0.1,11
		c0.1,1.4,0.9,1.7,4.3,1.8l-0.1,1.8c-2.3,0-5.2-0.2-7.8-0.2c-2.9,0-5.1,0.2-6.7,0.2v-1.8c3.6-0.1,4.1-0.5,4.2-1.9
		c0.1-1.2,0.3-5.6,0.3-11.2V109c0-5.4,0-7.2-0.1-9c-0.1-1-0.5-1.2-4.2-1.2L609.5,97.2z"/>
</g>
<g enable-background="new    ">
	<path fill="#FFFFFF" d="M473.8,177c-0.5-6.7-3.5-12.6-10.8-12.6c-4,0-6.8,1.5-9.1,4.4c-2.5,3.2-4.1,8.5-4.1,14.7
		c0,5.1,1.2,9.9,3.3,13c2.4,3.7,6,5.4,10,5.4c5.9,0,9.9-2.9,12.3-9.7l1.7,1.1c-2.3,7.4-7.5,11.5-16,11.5c-6.4,0-11.3-2.1-14.5-6.4
		c-2.6-3.4-4.1-8.4-4.1-14.2c0-7.6,2.6-13.1,6.5-16.8c3.3-3.2,7.7-5.1,13.5-5.1c5.1,0,8.8,1.6,10.8,3.6l1.2-3.3l1.5,0.5
		c-0.5,3.5-0.8,9.3-0.6,13.5L473.8,177z"/>
</g>
<g enable-background="new    ">
	<path fill="#FFFFFF" d="M486.1,187.5c0-4-0.3-6.8-0.4-7.9c-0.1-0.6-0.5-1-1.3-1l-2.5-0.1l0.1-1.7c2.7-0.1,6.5-0.4,9-1.1l0.2,0.2
		c0.3,1.5,0.4,4.9,0.4,6.3h0.2c1.5-3.4,3.8-6.5,7.8-6.5c2.6,0,4,2,4,3.8c0,2.7-2,3.6-2.9,3.6c-1,0-1.6-0.3-1.9-1
		c-0.4-1.3-0.8-2.2-2.2-2.2c-1.9,0-3.4,2.6-4.2,5.3c-0.3,1.1-0.4,2.1-0.4,3.6c0,7.1,0,10,0.1,11.6c0.1,1.4,0.5,1.7,5.4,1.9l-0.3,1.8
		c-2.3,0-5.3-0.2-8.1-0.2c-2.8,0-4.9,0.2-7.3,0.2l0.3-1.8c3.2-0.1,3.8-0.4,3.9-1.5c0.2-1.3,0.3-4.3,0.3-8V187.5z"/>
</g>
<g enable-background="new    ">
	<path fill="#FFFFFF" d="M530.9,196.5c-1.9,5.8-6,8.3-11.5,8.3c-4.9,0-8.1-1.5-10.2-4.4c-1.7-2.2-2.7-5.9-2.7-9.6
		c0-8,4.6-15.2,13.5-15.2c9.3,0,11,7.3,11,11.1c0,1.3-0.4,2.2-1.3,2.6c-1.1,0.4-4.2,0.8-8.4,0.8c-2.2,0.1-5.6,0.1-8.4,0
		c-0.1,3.5,0.8,6.5,1.9,8.4c1.4,2.2,3.5,3.3,6.4,3.3c4,0,6.3-1.9,8.1-6.2L530.9,196.5z M512.9,188.1c1.7,0,3.5,0,5.3,0
		c3,0,4.7-0.2,5.7-0.4c0.8-0.2,1.3-0.9,1.3-2.2c0-3.5-1.4-8-5.6-8C515.1,177.5,513.1,182.9,512.9,188.1z"/>
</g>
<g enable-background="new    ">
	<path fill="#FFFFFF" d="M565,198.5c-0.9,4.6-3.5,6.3-6.5,6.3c-3.3,0-4.6-2-5-4.7c-2.8,3.1-6.2,4.7-9.2,4.7c-5,0-7.8-3.4-7.8-7.9
		c0-2.6,1-4.7,3.6-5.8c4.4-1.9,10.9-3.9,13.5-5.7v-2.5c0-2.8-1.3-5.4-5-5.4c-3.8,0-5.4,2-5.4,4.6c0,0.7,0.1,1.4,0.3,1.9
		c0.1,0.6-0.2,1.1-0.6,1.3c-0.6,0.4-1.3,0.6-2.2,0.6c-1.4,0-2.8-0.8-2.8-2.9c0-3.3,4.7-7.5,11.7-7.5c5.4,0,7.8,2.3,8.7,3.7
		c0.5,0.8,0.9,2.2,0.9,3.3c0,1.8,0,12.2,0,16.3c0,2.4,0.7,2.8,1.5,2.8c1,0,2-1.3,2.6-3.9L565,198.5z M553.6,187.4
		c-1.7,1-5.2,2.4-7.5,3.7c-1.9,1-3.3,2-3.3,4.9c0,3,1.6,5.4,4.5,5.4c3,0,4.9-1.8,6-4.2c0.3-0.8,0.4-1.8,0.4-2.7V187.4z"/>
</g>
<g enable-background="new    ">
	<path fill="#FFFFFF" d="M585.9,176.6l-0.3,1.9l-8.7,0.4c-0.1,2.2-0.2,4.9-0.2,9.9c0,5.8,0.1,9,0.4,10.8c0.3,1.6,1.3,2.6,2.9,2.6
		c2.9,0,4.5-2.2,5.3-5.4h0.8l0.6,2.3c-1.6,3.7-4.8,5.7-9,5.7c-2.9,0-4.8-0.9-5.8-2.2c-0.7-1-1-2.2-1.1-4.1c0-5.1,0.2-14.6,0.3-19.5
		l-4.4-0.4l0.3-1.9h4.2c0-2.1,0-5.3,0-7.2c2.4-0.9,4.6-2.1,5.5-2.9l0.6,0.2c-0.1,1.7-0.3,6.4-0.3,9.9H585.9z"/>
</g>
<g enable-background="new    ">
	<path fill="#FFFFFF" d="M603.8,204.1c-1.9,0-4.4-0.2-7.4-0.2c-3.2,0-5.1,0.2-7,0.2l0.1-1.8c3.7-0.1,4.2-0.6,4.3-1.7
		c0.1-1.2,0.3-3.8,0.3-7.6V186c0-3.5-0.1-5.6-0.2-6.5c-0.1-0.9-0.7-1-4.1-0.9l0.1-1.7c3-0.2,7.2-0.4,10.1-1.2
		c-0.1,1.5-0.2,5.1-0.2,9.9v7.4c0,4,0.1,6.2,0.1,7.5c0.1,1.4,0.8,1.7,4,1.8L603.8,204.1z M599.8,166.7c0,2-1.6,3.3-3.6,3.3
		c-1.7,0-3.2-1.2-3.2-3.3c0-2.1,1.5-3.6,3.5-3.6C598.7,163.2,599.8,164.6,599.8,166.7z"/>
</g>
<g enable-background="new    ">
	<path fill="#FFFFFF" d="M605.3,176.3c1.3,0.1,4,0.2,6.3,0.2c2.6,0,5.3-0.2,7.2-0.2l0.3,1.8l-2.4,0.3c-1.1,0.1-1.3,0.4-0.9,1.6
		c1.8,5.4,5,13.8,6.5,17.9c2-5.3,4.8-12.6,6.2-17.8c0.4-1.2,0.1-1.6-0.9-1.7l-2.8-0.3l0.1-1.8c2.1,0,4.2,0.2,6,0.2
		c2.2,0,3.9-0.2,5.2-0.2l-0.1,1.8c-2.9,0.2-3.7,0.8-5,3.5c-3.1,7.1-6.6,16.3-8.9,22.9c-1.1,0-2.1,0.1-3.2,0.3
		c-2.8-7.7-7.6-20.4-9.2-23.9c-1-2.2-1.4-2.6-4.4-2.7V176.3z"/>
</g>
<g enable-background="new    ">
	<path fill="#FFFFFF" d="M662.4,196.5c-1.9,5.8-6,8.3-11.5,8.3c-4.9,0-8.1-1.5-10.2-4.4c-1.7-2.2-2.7-5.9-2.7-9.6
		c0-8,4.6-15.2,13.5-15.2c9.3,0,11,7.3,11,11.1c0,1.3-0.4,2.2-1.3,2.6c-1.1,0.4-4.2,0.8-8.4,0.8c-2.2,0.1-5.6,0.1-8.4,0
		c-0.1,3.5,0.8,6.5,1.9,8.4c1.4,2.2,3.5,3.3,6.4,3.3c4,0,6.3-1.9,8.1-6.2L662.4,196.5z M644.5,188.1c1.7,0,3.5,0,5.3,0
		c3,0,4.7-0.2,5.7-0.4c0.8-0.2,1.3-0.9,1.3-2.2c0-3.5-1.4-8-5.6-8C646.6,177.5,644.7,182.9,644.5,188.1z"/>
</g>
<g enable-background="new    ">
	<path fill="#FFFFFF" d="M444.7,254.6c-0.3,8,3.3,12.4,9.9,12.4c4.3,0,8-2.4,8-7.7c0-2.7-1.1-4.7-3.5-6.1c-1.9-1.2-6.9-3.6-9.9-5.3
		c-4.4-2.4-6-5.9-6-9.9c0-7.1,5.1-11.5,12.5-11.5c3.7,0,6.9,1.2,8.3,2.6l1.1-2.8l1.6,0.4c-0.9,5-1,10.1-1,12.4l-1.8,0.2
		c0.1-7.4-3.7-10.7-8.4-10.7c-4.2,0-6.9,2.8-6.9,7.2c0,2.9,1.2,5.1,4.4,6.9c4.7,2.5,8,4,10.3,5.6c3.3,1.8,5.1,4.4,5.1,8.7
		c0,8.2-6.7,12.2-14.9,12.2c-3.9,0-8.5-1.3-11.1-2.5c0.4-3.6,0.4-8.3,0.5-11.5L444.7,254.6z"/>
</g>
<g enable-background="new    ">
	<path fill="#FFFFFF" d="M492.3,240.7l-0.3,1.9l-8.7,0.4c-0.1,2.2-0.2,4.9-0.2,9.9c0,5.8,0.1,9,0.4,10.8c0.3,1.6,1.3,2.6,2.9,2.6
		c2.9,0,4.5-2.2,5.3-5.4h0.8l0.6,2.3c-1.6,3.7-4.8,5.7-9,5.7c-2.9,0-4.8-0.9-5.8-2.2c-0.7-1-1-2.2-1.1-4.1c0-5.1,0.2-14.6,0.3-19.5
		l-4.4-0.4l0.3-1.9h4.2c0-2.1,0-5.3,0-7.2c2.4-0.9,4.6-2.1,5.5-2.9l0.6,0.2c-0.1,1.7-0.3,6.4-0.3,9.9H492.3z"/>
</g>
<g enable-background="new    ">
	<path fill="#FFFFFF" d="M512.6,240.6c3.5,0,7-0.1,10.6-0.4c-0.1,1.9-0.3,5.3-0.3,9.4v7.6c0,3.9,0.1,6.5,0.3,7.9
		c0.1,1.2,0.5,1.4,4.6,1.3l-0.2,1.7c-3.3,0.2-6.7,0.4-10.3,1c-0.1-1.7-0.1-4.4-0.1-6.2c-1.9,2.6-6.1,6-11.4,6
		c-3.7,0-5.5-1.5-6.2-2.8c-0.6-1-0.8-2.2-0.8-3.8c0-3.3,0.1-9.3,0.1-13.7c0-2.9-0.1-4.4-0.1-5.3c-0.1-1-0.8-1-4-1l0.2-1.7
		c3.3,0,6.7-0.1,10.1-0.6c-0.3,1.7-0.5,5.5-0.5,12.9c0,5.8,0,9.2,0.4,10.7c0.3,1.3,1.4,2.3,3.3,2.3c3.7,0,6.7-2.7,8.1-6.1
		c0.6-1.4,0.7-2.4,0.7-3.8v-6.2c0-3.1-0.1-5.1-0.2-6.3c-0.1-1-0.8-1-4.3-1.1L512.6,240.6z"/>
</g>
<g enable-background="new    ">
	<path fill="#FFFFFF" d="M548.3,225.4c2.6-0.1,8.2-0.4,10.8-0.8c-0.1,2.6-0.3,7.8-0.3,14.4l-0.1,14.9c0,6.4,0.1,9.1,0.3,11
		c0.1,1.1,0.5,1.3,1.5,1.3h3l-0.3,1.9c-2.6,0-7.9,0.4-10.3,1c0-1.3,0.1-3.3,0-4.6l-0.1-0.1c-2.8,2.8-5.6,4.5-9.3,4.5
		c-3.9,0-6.9-1.6-8.7-4.1c-1.8-2.4-2.7-5.8-2.7-9.6c0-8.3,4.7-15.5,14.5-15.5c2.9,0,5.3,0.8,6.3,1.7c0.1-7.1,0-10.6-0.1-12.9
		c-0.1-1.4-0.5-1.5-4.7-1.4L548.3,225.4z M540.5,262.8c1.3,1.9,3.3,2.9,5.5,2.9c2.5,0,4.7-1,6.3-3.7c0.4-0.8,0.6-1.9,0.6-10.1
		c0-5.2-0.1-6-0.4-6.7c-0.8-1.5-2.3-3.4-5.8-3.4c-5.6,0-8.3,5.6-8.3,12.4C538.4,257.5,539.1,260.8,540.5,262.8z"/>
</g>
<g enable-background="new    ">
	<path fill="#FFFFFF" d="M580.6,268.2c-1.9,0-4.4-0.2-7.4-0.2c-3.2,0-5.1,0.2-7,0.2l0.1-1.8c3.7-0.1,4.2-0.6,4.3-1.7
		c0.1-1.2,0.3-3.8,0.3-7.6v-7.1c0-3.5-0.1-5.6-0.2-6.5c-0.1-0.9-0.7-1-4.1-0.9l0.1-1.7c3-0.2,7.2-0.4,10.1-1.2
		c-0.1,1.5-0.2,5.1-0.2,9.9v7.4c0,4,0.1,6.2,0.1,7.5c0.1,1.4,0.8,1.7,4,1.8L580.6,268.2z M576.7,230.8c0,2-1.6,3.3-3.6,3.3
		c-1.7,0-3.2-1.2-3.2-3.3c0-2.1,1.5-3.6,3.5-3.6C575.5,227.3,576.7,228.7,576.7,230.8z"/>
</g>
<g enable-background="new    ">
	<path fill="#FFFFFF" d="M613.3,254c0,9-5.3,14.9-14.1,14.9c-9.4,0-13.9-6.2-13.9-14.4c0-8.1,5.1-14.8,14.3-14.8
		C608.2,239.7,613.3,245.7,613.3,254z M593.7,244.8c-1.2,1.9-1.9,5.1-1.9,8.8c0,3.8,0.7,7.3,1.9,9.5c1.3,2.6,3.5,3.9,6,3.9
		c2.5,0,4.3-1.1,5.5-3.4c1-1.9,1.6-5,1.6-8.9c0-4-0.7-7.4-1.8-9.4c-1.2-2.2-3-3.7-5.8-3.7C596.6,241.7,595,242.9,593.7,244.8z"/>
	<path fill="#FFFFFF" d="M626.3,264.7c0,2.5-1.7,4.2-3.9,4.2s-3.9-1.7-3.9-4.2c0-2.4,1.7-4.2,3.9-4.2
		C624.7,260.6,626.3,262.4,626.3,264.7z"/>
</g>
</svg>
